AcariSans-LightItalic.ufo
<glyph name="twosuperior" format="2">
  <advance width="921"/>
  <unicode hex="00B2"/>
  <outline>
    <contour>
      <point x="772.784" y="931.712" type="line"/>
      <point x="791.216" y="1015.68" type="line"/>
      <point x="256.688" y="1015.68" type="line"/>
      <point x="476.848" y="1129.32"/>
      <point x="903.856" y="1425.28"/>
      <point x="903.856" y="1713.02" type="curve" smooth="yes"/>
      <point x="903.856" y="1852.29"/>
      <point x="800.432" y="1913.73"/>
      <point x="672.432" y="1913.73" type="curve" smooth="yes"/>
      <point x="486.064" y="1913.73"/>
      <point x="357.04" y="1773.44"/>
      <point x="316.08" y="1600.38" type="curve"/>
      <point x="403.12" y="1586.05" type="line"/>
      <point x="435.888" y="1708.93"/>
      <point x="522.928" y="1823.62"/>
      <point x="661.168" y="1823.62" type="curve" smooth="yes"/>
      <point x="747.184" y="1823.62"/>
      <point x="798.384" y="1780.61"/>
      <point x="798.384" y="1693.57" type="curve" smooth="yes"/>
      <point x="798.384" y="1440.64"/>
      <point x="339.632" y="1139.58"/>
      <point x="135.856" y="1027.97" type="curve"/>
      <point x="116.4" y="931.712" type="line"/>
    </contour>
  </outline>
</glyph>
<glyph name="threesuperior" format="2">
  <advance width="921"/>
  <unicode hex="00B3"/>
  <outline>
    <contour>
      <point x="557.272" y="914.304" type="curve" smooth="yes"/>
      <point x="763.096" y="914.304"/>
      <point x="952.536" y="1052.54"/>
      <point x="952.536" y="1270.66" type="curve" smooth="yes"/>
      <point x="952.536" y="1360.77"/>
      <point x="910.552" y="1421.18"/>
      <point x="825.56" y="1451.9" type="curve"/>
      <point x="933.08" y="1504.13"/>
      <point x="1010.9" y="1604.48"/>
      <point x="1010.9" y="1727.36" type="curve" smooth="yes"/>
      <point x="1010.9" y="1854.34"/>
      <point x="900.312" y="1917.82"/>
      <point x="784.6" y="1917.82" type="curve" smooth="yes"/>
      <point x="629.976" y="1917.82"/>
      <point x="493.784" y="1823.62"/>
      <point x="454.872" y="1670.02" type="curve"/>
      <point x="535.768" y="1653.63" type="line"/>
      <point x="560.344" y="1756.03"/>
      <point x="667.864" y="1827.71"/>
      <point x="770.264" y="1827.71" type="curve" smooth="yes"/>
      <point x="843.992" y="1827.71"/>
      <point x="914.648" y="1784.7"/>
      <point x="914.648" y="1703.81" type="curve" smooth="yes"/>
      <point x="914.648" y="1560.45"/>
      <point x="798.936" y="1491.84"/>
      <point x="671.96" y="1491.84" type="curve" smooth="yes"/>
      <point x="640.216" y="1491.84" type="line"/>
      <point x="620.76" y="1399.68" type="line"/>
      <point x="692.44" y="1399.68" type="line" smooth="yes"/>
      <point x="777.432" y="1399.68"/>
      <point x="861.4" y="1353.6"/>
      <point x="861.4" y="1259.39" type="curve" smooth="yes"/>
      <point x="861.4" y="1103.74"/>
      <point x="714.968" y="1001.34"/>
      <point x="569.56" y="1001.34" type="curve" smooth="yes"/>
      <point x="476.376" y="1001.34"/>
      <point x="381.144" y="1050.5"/>
      <point x="381.144" y="1153.92" type="curve" smooth="yes"/>
      <point x="381.144" y="1171.33"/>
      <point x="383.192" y="1188.74"/>
      <point x="387.288" y="1205.12" type="curve"/>
      <point x="294.104" y="1201.02" type="line"/>
      <point x="288.984" y="1176.45"/>
      <point x="284.888" y="1151.87"/>
      <point x="284.888" y="1127.3" type="curve" smooth="yes"/>
      <point x="284.888" y="972.672"/>
      <point x="422.104" y="914.304"/>
    </contour>
  </outline>
</glyph>
<glyph name="zero.superior" format="2">
  <advance width="921"/>
  <unicode hex="2070"/>
  <outline>
    <contour>
      <point x="560.92" y="914.304" type="curve" smooth="yes"/>
      <point x="867.096" y="914.304"/>
      <point x="1042.2" y="1321.86"/>
      <point x="1042.2" y="1582.98" type="curve" smooth="yes"/>
      <point x="1042.2" y="1752.96"/>
      <point x="971.544" y="1919.87"/>
      <point x="776.984" y="1919.87" type="curve" smooth="yes"/>
      <point x="464.664" y="1919.87"/>
      <point x="292.632" y="1512.32"/>
      <point x="292.632" y="1246.08" type="curve" smooth="yes"/>
      <point x="292.632" y="1067.9"/>
      <point x="360.216" y="914.304"/>
    </contour>
    <contour>
      <point x="569.112" y="1006.46" type="curve" smooth="yes"/>
      <point x="425.752" y="1006.46"/>
      <point x="389.912" y="1129.34"/>
      <point x="389.912" y="1249.15" type="curve" smooth="yes"/>
      <point x="389.912" y="1448.83"/>
      <point x="519.96" y="1823.62"/>
      <point x="762.648" y="1823.62" type="curve" smooth="yes"/>
      <point x="898.84" y="1823.62"/>
      <point x="935.704" y="1698.69"/>
      <point x="935.704" y="1585.02" type="curve" smooth="yes"/>
      <point x="935.704" y="1389.44"/>
      <point x="809.752" y="1006.46"/>
    </contour>
  </outline>
</glyph>
<glyph name="four.superior" format="2">
  <advance width="921"/>
  <unicode hex="2074"/>
  <outline>
    <contour>
      <point x="735.168" y="931.712" type="line"/>
      <point x="797.632" y="1197.95" type="line"/>
      <point x="952.256" y="1197.95" type="line"/>
      <point x="970.688" y="1282.94" type="line"/>
      <point x="818.112" y="1282.94" type="line"/>
      <point x="965.568" y="1900.42" type="line"/>
      <point x="872.384" y="1900.42" type="line"/>
      <point x="253.888" y="1255.3" type="line"/>
      <point x="241.6" y="1197.95" type="line"/>
      <point x="698.304" y="1197.95" type="line"/>
      <point x="635.84" y="931.712" type="line"/>
    </contour>
    <contour>
      <point x="718.784" y="1282.94" type="line"/>
      <point x="381.888" y="1282.94" type="line"/>
      <point x="830.4" y="1755.01" type="line"/>
    </contour>
  </outline>
</glyph>
<glyph name="five.superior" format="2">
  <advance width="921"/>
  <unicode hex="2075"/>
  <outline>
    <contour>
      <point x="549.776" y="918.4" type="curve" smooth="yes"/>
      <point x="759.696" y="918.4"/>
      <point x="954.256" y="1111.94"/>
      <point x="954.256" y="1321.86" type="curve" smooth="yes"/>
      <point x="954.256" y="1466.24"/>
      <point x="855.952" y="1559.42"/>
      <point x="712.592" y="1559.42" type="curve" smooth="yes"/>
      <point x="630.672" y="1559.42"/>
      <point x="560.016" y="1534.85"/>
      <point x="498.576" y="1478.53" type="curve"/>
      <point x="633.744" y="1813.38" type="line"/>
      <point x="1035.15" y="1813.38" type="line"/>
      <point x="1053.58" y="1900.42" type="line"/>
      <point x="579.472" y="1900.42" type="line"/>
      <point x="384.912" y="1414.02" type="line"/>
      <point x="456.592" y="1367.94" type="line"/>
      <point x="514.96" y="1436.54"/>
      <point x="596.88" y="1475.46"/>
      <point x="686.992" y="1475.46" type="curve" smooth="yes"/>
      <point x="789.392" y="1475.46"/>
      <point x="853.904" y="1422.21"/>
      <point x="853.904" y="1315.71" type="curve" smooth="yes"/>
      <point x="853.904" y="1156.99"/>
      <point x="718.736" y="1005.44"/>
      <point x="557.968" y="1005.44" type="curve" smooth="yes"/>
      <point x="456.626" y="1005.44"/>
      <point x="386.96" y="1098.06"/>
      <point x="386.96" y="1211.26" type="curve"/>
      <point x="296.848" y="1181.57" type="line"/>
      <point x="296.848" y="1034.01"/>
      <point x="409.528" y="918.4"/>
    </contour>
  </outline>
</glyph>
<glyph name="six.superior" format="2">
  <advance width="921"/>
  <unicode hex="2076"/>
  <outline>
    <contour>
      <point x="549.68" y="918.4" type="curve" smooth="yes"/>
      <point x="751.408" y="918.4"/>
      <point x="951.088" y="1104.77"/>
      <point x="951.088" y="1309.57" type="curve" smooth="yes"/>
      <point x="951.088" y="1464.19"/>
      <point x="834.352" y="1546.11"/>
      <point x="688.944" y="1546.11" type="curve" smooth="yes"/>
      <point x="632.626" y="1546.11"/>
      <point x="611.913" y="1543.51"/>
      <point x="553.212" y="1530.26" type="curve"/>
      <point x="537.904" y="1473.89" type="line"/>
      <point x="893.744" y="1900.42" type="line"/>
      <point x="788.272" y="1900.42" type="line"/>
      <point x="385.84" y="1406.85" type="line" smooth="yes"/>
      <point x="329.748" y="1338.05"/>
      <point x="293.68" y="1256.32"/>
      <point x="293.68" y="1167.23" type="curve" smooth="yes"/>
      <point x="293.68" y="1018.75"/>
      <point x="403.248" y="918.4"/>
    </contour>
    <contour>
      <point x="562.992" y="1008.51" type="curve" smooth="yes"/>
      <point x="462.64" y="1008.51"/>
      <point x="391.984" y="1083.26"/>
      <point x="391.984" y="1182.59" type="curve" smooth="yes"/>
      <point x="391.984" y="1331.07"/>
      <point x="531.248" y="1463.17"/>
      <point x="678.704" y="1463.17" type="curve" smooth="yes"/>
      <point x="781.104" y="1463.17"/>
      <point x="852.784" y="1400.7"/>
      <point x="852.784" y="1297.28" type="curve" smooth="yes"/>
      <point x="852.784" y="1150.85"/>
      <point x="708.4" y="1008.51"/>
    </contour>
  </outline>
</glyph>
<glyph name="seven.superior" format="2">
  <advance width="921"/>
  <unicode hex="2077"/>
  <outline>
    <contour>
      <point x="465.592" y="931.712" type="line"/>
      <point x="1093.3" y="1850.24" type="line"/>
      <point x="1103.54" y="1900.42" type="line"/>
      <point x="470.712" y="1900.42" type="line"/>
      <point x="452.28" y="1812.35" type="line"/>
      <point x="976.568" y="1812.35" type="line"/>
      <point x="359.096" y="931.712" type="line"/>
    </contour>
  </outline>
</glyph>
<glyph name="eight.superior" format="2">
  <advance width="921"/>
  <unicode hex="2078"/>
  <outline>
    <contour>
      <point x="544.013" y="911.304" type="curve" smooth="yes"/>
      <point x="745.741" y="911.304"/>
      <point x="941.325" y="1041.35"/>
      <point x="941.325" y="1258.44" type="curve" smooth="yes"/>
      <point x="941.325" y="1348.55"/>
      <point x="894.221" y="1414.09"/>
      <point x="812.301" y="1449.93" type="curve"/>
      <point x="923.917" y="1499.08"/>
      <point x="1003.79" y="1602.5"/>
      <point x="1003.79" y="1725.38" type="curve" smooth="yes"/>
      <point x="1003.79" y="1852.36"/>
      <point x="891.149" y="1914.82"/>
      <point x="776.461" y="1914.82" type="curve" smooth="yes"/>
      <point x="606.477" y="1914.82"/>
      <point x="435.469" y="1793.99"/>
      <point x="435.469" y="1612.74" type="curve" smooth="yes"/>
      <point x="435.469" y="1546.18"/>
      <point x="468.237" y="1486.79"/>
      <point x="525.581" y="1454.02" type="curve"/>
      <point x="380.173" y="1398.73"/>
      <point x="269.581" y="1288.14"/>
      <point x="269.581" y="1125.32" type="curve" smooth="yes"/>
      <point x="269.581" y="971.72"/>
      <point x="409.869" y="911.304"/>
    </contour>
    <contour>
      <point x="676.109" y="1480.65" type="curve" smooth="yes"/>
      <point x="597.261" y="1480.65"/>
      <point x="533.773" y="1521.61"/>
      <point x="533.773" y="1607.62" type="curve" smooth="yes"/>
      <point x="533.773" y="1730.5"/>
      <point x="646.413" y="1826.76"/>
      <point x="765.197" y="1826.76" type="curve" smooth="yes"/>
      <point x="844.045" y="1826.76"/>
      <point x="908.557" y="1786.82"/>
      <point x="908.557" y="1701.83" type="curve" smooth="yes"/>
      <point x="908.557" y="1578.95"/>
      <point x="795.917" y="1480.65"/>
    </contour>
    <contour>
      <point x="554.253" y="995.272" type="curve" smooth="yes"/>
      <point x="463.117" y="995.272"/>
      <point x="369.933" y="1041.35"/>
      <point x="369.933" y="1143.75" type="curve" smooth="yes"/>
      <point x="369.933" y="1300.42"/>
      <point x="513.293" y="1406.92"/>
      <point x="661.773" y="1406.92" type="curve" smooth="yes"/>
      <point x="751.885" y="1406.92"/>
      <point x="843.021" y="1358.79"/>
      <point x="843.021" y="1257.42" type="curve" smooth="yes"/>
      <point x="843.021" y="1104.84"/>
      <point x="700.685" y="995.272"/>
    </contour>
  </outline>
</glyph>
<glyph name="nine.superior" format="2">
  <advance width="921"/>
  <unicode hex="2079"/>
  <outline>
    <contour>
      <point x="547.848" y="931.712" type="line"/>
      <point x="950.28" y="1426.3" type="line" smooth="yes"/>
      <point x="1004.48" y="1492.92"/>
      <point x="1040.39" y="1578.88"/>
      <point x="1040.39" y="1665.92" type="curve" smooth="yes"/>
      <point x="1040.39" y="1812.35"/>
      <point x="929.8" y="1914.75"/>
      <point x="785.416" y="1914.75" type="curve" smooth="yes"/>
      <point x="583.688" y="1914.75"/>
      <point x="384.008" y="1727.36"/>
      <point x="384.008" y="1522.56" type="curve" smooth="yes"/>
      <point x="384.008" y="1365.89"/>
      <point x="510.559" y="1286.02"/>
      <point x="677.376" y="1286.02" type="curve" smooth="yes"/>
      <point x="715.341" y="1286.02"/>
      <point x="753.968" y="1294.09"/>
      <point x="786.074" y="1308.74" type="curve"/>
      <point x="788.345" y="1353.41" type="line"/>
      <point x="443.4" y="931.712" type="line"/>
    </contour>
    <contour>
      <point x="661.512" y="1368.96" type="curve" smooth="yes"/>
      <point x="559.112" y="1368.96"/>
      <point x="481.288" y="1427.33"/>
      <point x="481.288" y="1534.85" type="curve" smooth="yes"/>
      <point x="481.288" y="1676.16"/>
      <point x="624.648" y="1824.64"/>
      <point x="768.008" y="1824.64" type="curve" smooth="yes"/>
      <point x="868.36" y="1824.64"/>
      <point x="943.112" y="1752.96"/>
      <point x="943.112" y="1650.56" type="curve" smooth="yes"/>
      <point x="943.112" y="1504.13"/>
      <point x="807.944" y="1368.96"/>
    </contour>
  </outline>
</glyph>
<glyph name="zero.inferior" format="2">
  <advance width="921"/>
  <unicode hex="2080"/>
  <outline>
    <contour>
      <point x="238.92" y="-486.104" type="curve" smooth="yes"/>
      <point x="543.048" y="-486.104"/>
      <point x="720.2" y="-75.48"/>
      <point x="720.2" y="182.568" type="curve" smooth="yes"/>
      <point x="720.2" y="352.552"/>
      <point x="649.544" y="519.464"/>
      <point x="454.984" y="519.464" type="curve" smooth="yes"/>
      <point x="144.712" y="519.464"/>
      <point x="-29.368" y="108.84"/>
      <point x="-29.368" y="-154.328" type="curve" smooth="yes"/>
      <point x="-29.368" y="-330.456"/>
      <point x="39.24" y="-486.104"/>
    </contour>
    <contour>
      <point x="247.112" y="-393.944" type="curve" smooth="yes"/>
      <point x="104.776" y="-393.944"/>
      <point x="67.912" y="-271.064"/>
      <point x="67.912" y="-151.256" type="curve" smooth="yes"/>
      <point x="67.912" y="46.376"/>
      <point x="197.96" y="423.208"/>
      <point x="440.648" y="423.208" type="curve" smooth="yes"/>
      <point x="576.84" y="423.208"/>
      <point x="613.704" y="298.28"/>
      <point x="613.704" y="184.616" type="curve" smooth="yes"/>
      <point x="613.704" y="-8.92001"/>
      <point x="483.656" y="-393.944"/>
    </contour>
  </outline>
</glyph>
<glyph name="three.inferior" format="2">
  <advance width="921"/>
  <unicode hex="2083"/>
  <outline>
    <contour>
      <point x="209.272" y="-486.104" type="curve" smooth="yes"/>
      <point x="414.072" y="-486.104"/>
      <point x="604.536" y="-346.84"/>
      <point x="604.536" y="-129.752" type="curve" smooth="yes"/>
      <point x="604.536" y="-39.64"/>
      <point x="562.552" y="20.776"/>
      <point x="477.56" y="49.448" type="curve"/>
      <point x="477.56" y="53.544" type="line"/>
      <point x="585.08" y="103.72"/>
      <point x="662.904" y="204.072"/>
      <point x="662.904" y="326.952" type="curve" smooth="yes"/>
      <point x="662.904" y="453.928"/>
      <point x="551.288" y="517.416"/>
      <point x="436.6" y="517.416" type="curve" smooth="yes"/>
      <point x="277.88" y="517.416"/>
      <point x="147.832" y="425.256"/>
      <point x="106.872" y="269.608" type="curve"/>
      <point x="187.768" y="253.224" type="line"/>
      <point x="214.392" y="358.696"/>
      <point x="315.768" y="427.304"/>
      <point x="422.264" y="427.304" type="curve" smooth="yes"/>
      <point x="495.992" y="427.304"/>
      <point x="566.648" y="384.296"/>
      <point x="566.648" y="303.4" type="curve" smooth="yes"/>
      <point x="566.648" y="159.001"/>
      <point x="449.189" y="90.7604"/>
      <point x="321.838" y="91.3052" type="curve" smooth="yes"/>
      <point x="292.216" y="91.4319" type="line"/>
      <point x="272.76" y="-0.728061" type="line"/>
      <point x="344.44" y="-0.728061" type="line" smooth="yes"/>
      <point x="430.456" y="-0.728061"/>
      <point x="513.4" y="-46.8081"/>
      <point x="513.4" y="-141.016" type="curve" smooth="yes"/>
      <point x="513.4" y="-293.592"/>
      <point x="365.944" y="-399.064"/>
      <point x="221.56" y="-399.064" type="curve" smooth="yes"/>
      <point x="128.376" y="-399.064"/>
      <point x="33.144" y="-349.912"/>
      <point x="33.144" y="-246.488" type="curve" smooth="yes"/>
      <point x="33.144" y="-229.08"/>
      <point x="35.192" y="-211.672"/>
      <point x="39.288" y="-195.288" type="curve"/>
      <point x="-53.896" y="-199.384" type="line"/>
      <point x="-59.016" y="-223.96"/>
      <point x="-63.112" y="-248.536"/>
      <point x="-63.112" y="-273.112" type="curve" smooth="yes"/>
      <point x="-63.112" y="-427.736"/>
      <point x="74.104" y="-486.104"/>
    </contour>
  </outline>
</glyph>
<glyph name="four.inferior" format="2">
  <advance width="921"/>
  <unicode hex="2084"/>
  <outline>
    <contour>
      <point x="414.168" y="-468.696" type="line"/>
      <point x="476.632" y="-202.456" type="line"/>
      <point x="631.256" y="-202.456" type="line"/>
      <point x="649.688" y="-117.464" type="line"/>
      <point x="497.112" y="-117.464" type="line"/>
      <point x="644.568" y="500.008" type="line"/>
      <point x="551.384" y="500.008" type="line"/>
      <point x="-67.112" y="-145.112" type="line"/>
      <point x="-79.4" y="-202.456" type="line"/>
      <point x="377.304" y="-202.456" type="line"/>
      <point x="314.84" y="-468.696" type="line"/>
    </contour>
    <contour>
      <point x="397.784" y="-117.464" type="line"/>
      <point x="60.888" y="-117.464" type="line"/>
      <point x="509.4" y="354.6" type="line"/>
    </contour>
  </outline>
</glyph>
<glyph name="five.inferior" format="2">
  <advance width="921"/>
  <unicode hex="2085"/>
  <outline>
    <contour>
      <point x="274.812" y="-482.008" type="curve" smooth="yes"/>
      <point x="509.261" y="-482.008"/>
      <point x="661.685" y="-333.113"/>
      <point x="661.685" y="-99.2573" type="curve" smooth="yes"/>
      <point x="661.685" y="59.1972"/>
      <point x="558.12" y="159.016"/>
      <point x="396.592" y="159.016" type="curve" smooth="yes"/>
      <point x="311.853" y="159.016"/>
      <point x="242.038" y="132.627"/>
      <point x="182.576" y="78.12" type="curve"/>
      <point x="317.744" y="412.968" type="line"/>
      <point x="719.152" y="412.968" type="line"/>
      <point x="737.584" y="500.008" type="line"/>
      <point x="263.472" y="500.008" type="line"/>
      <point x="68.912" y="13.608" type="line"/>
      <point x="140.592" y="-32.472" type="line"/>
      <point x="199.215" y="35.5722"/>
      <point x="283.806" y="75.048"/>
      <point x="370.992" y="75.048" type="curve" smooth="yes"/>
      <point x="490.529" y="75.048"/>
      <point x="561.333" y="8.74985"/>
      <point x="561.333" y="-105.401" type="curve" smooth="yes"/>
      <point x="561.333" y="-273.611"/>
      <point x="435.06" y="-396.994"/>
      <point x="285.603" y="-396.994" type="curve" smooth="yes"/>
      <point x="184.933" y="-396.994"/>
      <point x="100.768" y="-320.853"/>
      <point x="81.2809" y="-193.3" type="curve"/>
      <point x="-7.1711" y="-212.24" type="line"/>
      <point x="14.1543" y="-382.854"/>
      <point x="135.536" y="-482.008"/>
    </contour>
  </outline>
</glyph>
<glyph name="six.inferior" format="2">
  <advance width="921"/>
  <unicode hex="2086"/>
  <outline>
    <contour>
      <point x="218.68" y="-482.008" type="curve" smooth="yes"/>
      <point x="417.336" y="-482.008"/>
      <point x="620.088" y="-292.568"/>
      <point x="620.088" y="-90.84" type="curve" smooth="yes"/>
      <point x="620.088" y="64.808"/>
      <point x="504.376" y="145.704"/>
      <point x="357.944" y="145.704" type="curve" smooth="yes"/>
      <point x="323.128" y="145.704"/>
      <point x="290.36" y="142.632"/>
      <point x="258.616" y="135.464" type="curve"/>
      <point x="562.744" y="500.008" type="line"/>
      <point x="457.272" y="500.008" type="line"/>
      <point x="54.84" y="6.43995" type="line" smooth="yes"/>
      <point x="-0.439787" y="-61.3587"/>
      <point x="-37.32" y="-146.136"/>
      <point x="-37.32" y="-233.176" type="curve" smooth="yes"/>
      <point x="-37.32" y="-379.608"/>
      <point x="74.296" y="-482.008"/>
    </contour>
    <contour>
      <point x="231.992" y="-391.896" type="curve" smooth="yes"/>
      <point x="132.664" y="-391.896"/>
      <point x="60.984" y="-316.12"/>
      <point x="60.984" y="-217.816" type="curve" smooth="yes"/>
      <point x="60.984" y="-69.336"/>
      <point x="200.248" y="62.76"/>
      <point x="347.704" y="62.76" type="curve" smooth="yes"/>
      <point x="448.056" y="62.76"/>
      <point x="521.784" y="0.295959"/>
      <point x="521.784" y="-103.128" type="curve" smooth="yes"/>
      <point x="521.784" y="-249.56"/>
      <point x="378.424" y="-391.896"/>
    </contour>
  </outline>
</glyph>
<glyph name="seven.inferior" format="2">
  <advance width="921"/>
  <unicode hex="2087"/>
  <outline>
    <contour>
      <point x="144.592" y="-468.696" type="line"/>
      <point x="772.304" y="449.832" type="line"/>
      <point x="782.544" y="500.008" type="line"/>
      <point x="149.712" y="500.008" type="line"/>
      <point x="131.28" y="411.944" type="line"/>
      <point x="655.568" y="411.944" type="line"/>
      <point x="38.096" y="-468.696" type="line"/>
    </contour>
  </outline>
</glyph>
<glyph name="eight.inferior" format="2">
  <advance width="921"/>
  <unicode hex="2088"/>
  <outline>
    <contour>
      <point x="224.752" y="-486.104" type="curve" smooth="yes"/>
      <point x="426.48" y="-486.104"/>
      <point x="622.064" y="-356.056"/>
      <point x="622.064" y="-138.968" type="curve" smooth="yes"/>
      <point x="622.064" y="-48.856"/>
      <point x="574.96" y="16.68"/>
      <point x="493.04" y="52.52" type="curve"/>
      <point x="604.656" y="101.672"/>
      <point x="684.528" y="205.096"/>
      <point x="684.528" y="327.976" type="curve" smooth="yes"/>
      <point x="684.528" y="454.952"/>
      <point x="571.888" y="517.416"/>
      <point x="457.2" y="517.416" type="curve" smooth="yes"/>
      <point x="287.216" y="517.416"/>
      <point x="116.208" y="396.584"/>
      <point x="116.208" y="215.336" type="curve" smooth="yes"/>
      <point x="116.208" y="148.776"/>
      <point x="148.976" y="89.384"/>
      <point x="206.32" y="56.616" type="curve"/>
      <point x="60.912" y="1.31996"/>
      <point x="-49.68" y="-109.272"/>
      <point x="-49.68" y="-272.088" type="curve" smooth="yes"/>
      <point x="-49.68" y="-425.688"/>
      <point x="90.608" y="-486.104"/>
    </contour>
    <contour>
      <point x="356.848" y="83.24" type="curve" smooth="yes"/>
      <point x="278" y="83.24"/>
      <point x="214.512" y="124.2"/>
      <point x="214.512" y="210.216" type="curve" smooth="yes"/>
      <point x="214.512" y="333.096"/>
      <point x="327.152" y="429.352"/>
      <point x="445.936" y="429.352" type="curve" smooth="yes"/>
      <point x="524.784" y="429.352"/>
      <point x="589.296" y="389.416"/>
      <point x="589.296" y="304.424" type="curve" smooth="yes"/>
      <point x="589.296" y="181.544"/>
      <point x="476.656" y="83.24"/>
    </contour>
    <contour>
      <point x="234.992" y="-402.136" type="curve" smooth="yes"/>
      <point x="143.856" y="-402.136"/>
      <point x="50.672" y="-356.056"/>
      <point x="50.672" y="-253.656" type="curve" smooth="yes"/>
      <point x="50.672" y="-96.984"/>
      <point x="194.032" y="9.51197"/>
      <point x="342.512" y="9.51197" type="curve" smooth="yes"/>
      <point x="432.624" y="9.51197"/>
      <point x="523.76" y="-38.616"/>
      <point x="523.76" y="-139.992" type="curve" smooth="yes"/>
      <point x="523.76" y="-292.568"/>
      <point x="381.424" y="-402.136"/>
    </contour>
  </outline>
</glyph>
<glyph name="brevecomb_acutecomb.case" format="2">
  <anchor x="-480" y="1191.98" name="_top"/>
  <outline>
    <contour>
      <point x="-402.333" y="1191.94" type="curve" smooth="yes"/>
      <point x="-226.205" y="1191.94"/>
      <point x="-90.8297" y="1258.16"/>
      <point x="-62.1397" y="1374.9" type="curve"/>
      <point x="-187.068" y="1374.9" type="line"/>
      <point x="-204.755" y="1309.36"/>
      <point x="-309.516" y="1263.62"/>
      <point x="-407.82" y="1263.62" type="curve" smooth="yes"/>
      <point x="-486.668" y="1263.62"/>
      <point x="-551.121" y="1292.29"/>
      <point x="-557.005" y="1348.27" type="curve" smooth="yes"/>
      <point x="-557.795" y="1355.78"/>
      <point x="-556.679" y="1364.66"/>
      <point x="-554.684" y="1374.9" type="curve"/>
      <point x="-679.612" y="1374.9" type="line"/>
      <point x="-683.225" y="1360.56"/>
      <point x="-684.862" y="1346.91"/>
      <point x="-683.211" y="1331.21" type="curve" smooth="yes"/>
      <point x="-672.592" y="1230.17"/>
      <point x="-534.429" y="1191.94"/>
    </contour>
    <contour>
      <point x="-362.626" y="1319.88" type="line"/>
      <point x="-41.2755" y="1516.5" type="line"/>
      <point x="-224.572" y="1516.5" type="line"/>
      <point x="-490.626" y="1319.88" type="line"/>
    </contour>
  </outline>
</glyph>
<glyph name="dieresiscomb_gravecomb.case" format="2">
  <anchor x="-473" y="1192.33" name="_top"/>
  <outline>
    <contour>
      <point x="-493.389" y="1193" type="line"/>
      <point x="-462.493" y="1317.67" type="line"/>
      <point x="-625.493" y="1317.67" type="line"/>
      <point x="-655.389" y="1193" type="line"/>
    </contour>
    <contour>
      <point x="-150.389" y="1193" type="line"/>
      <point x="-119.493" y="1317.67" type="line"/>
      <point x="-282.493" y="1317.67" type="line"/>
      <point x="-312.389" y="1193" type="line"/>
    </contour>
    <contour>
      <point x="-313.97" y="1352.97" type="line"/>
      <point x="-491.308" y="1549.58" type="line"/>
      <point x="-660.268" y="1549.58" type="line"/>
      <point x="-436.85" y="1352.97" type="line"/>
    </contour>
  </outline>
</glyph>
<glyph name="dieresiscomb_macroncomb.case" format="2">
  <anchor x="-463" y="1192.33" name="_top"/>
  <outline>
    <contour>
      <point x="-493.389" y="1193" type="line"/>
      <point x="-462.493" y="1317.67" type="line"/>
      <point x="-625.493" y="1317.67" type="line"/>
      <point x="-655.389" y="1193" type="line"/>
    </contour>
    <contour>
      <point x="-150.389" y="1193" type="line"/>
      <point x="-119.493" y="1317.67" type="line"/>
      <point x="-282.493" y="1317.67" type="line"/>
      <point x="-312.389" y="1193" type="line"/>
    </contour>
    <contour>
      <point x="-639.12" y="1375.68" type="line"/>
      <point x="-91.1199" y="1375.68" type="line"/>
      <point x="-70.6688" y="1457.01" type="line"/>
      <point x="-618.669" y="1457.01" type="line"/>
    </contour>
  </outline>
</glyph>
<glyph name="five.numr" format="2">
  <advance width="921"/>
  <outline>
    <contour>
      <point x="454.56" y="465.272" type="curve" smooth="yes"/>
      <point x="689.009" y="465.272"/>
      <point x="841.433" y="614.167"/>
      <point x="841.433" y="848.022" type="curve" smooth="yes"/>
      <point x="841.433" y="1006.48"/>
      <point x="737.867" y="1106.3"/>
      <point x="576.34" y="1106.3" type="curve" smooth="yes"/>
      <point x="491.6" y="1106.3"/>
      <point x="421.785" y="1079.91"/>
      <point x="362.324" y="1025.4" type="curve"/>
      <point x="497.492" y="1360.25" type="line"/>
      <point x="898.9" y="1360.25" type="line"/>
      <point x="917.332" y="1447.29" type="line"/>
      <point x="443.22" y="1447.29" type="line"/>
      <point x="248.66" y="960.888" type="line"/>
      <point x="320.34" y="914.808" type="line"/>
      <point x="378.962" y="982.852"/>
      <point x="463.553" y="1022.33"/>
      <point x="550.74" y="1022.33" type="curve" smooth="yes"/>
      <point x="670.276" y="1022.33"/>
      <point x="741.081" y="956.03"/>
      <point x="741.081" y="841.878" type="curve" smooth="yes"/>
      <point x="741.081" y="673.669"/>
      <point x="614.808" y="550.286"/>
      <point x="465.351" y="550.286" type="curve" smooth="yes"/>
      <point x="364.68" y="550.286"/>
      <point x="280.516" y="626.427"/>
      <point x="261.029" y="753.979" type="curve"/>
      <point x="172.576" y="735.04" type="line"/>
      <point x="193.902" y="564.426"/>
      <point x="315.284" y="465.272"/>
    </contour>
  </outline>
</glyph>
<glyph name="four.dnom" format="2">
  <advance width="921"/>
  <outline>
    <contour>
      <point x="565.991" y="0" type="line"/>
      <point x="628.455" y="266.24" type="line"/>
      <point x="783.079" y="266.24" type="line"/>
      <point x="801.511" y="351.232" type="line"/>
      <point x="648.935" y="351.232" type="line"/>
      <point x="796.391" y="968.704" type="line"/>
      <point x="703.207" y="968.704" type="line"/>
      <point x="84.7114" y="323.584" type="line"/>
      <point x="72.4234" y="266.24" type="line"/>
      <point x="529.127" y="266.24" type="line"/>
      <point x="466.663" y="0" type="line"/>
    </contour>
    <contour>
      <point x="549.607" y="351.232" type="line"/>
      <point x="212.711" y="351.232" type="line"/>
      <point x="661.223" y="823.296" type="line"/>
    </contour>
  </outline>
</glyph>
<glyph name="four.numr" format="2">
  <advance width="921"/>
  <outline>
    <contour>
      <point x="674.205" y="478.793" type="line"/>
      <point x="736.669" y="745.033" type="line"/>
      <point x="891.293" y="745.033" type="line"/>
      <point x="909.725" y="830.025" type="line"/>
      <point x="757.149" y="830.025" type="line"/>
      <point x="904.605" y="1447.5" type="line"/>
      <point x="811.421" y="1447.5" type="line"/>
      <point x="192.925" y="802.377" type="line"/>
      <point x="180.637" y="745.033" type="line"/>
      <point x="637.341" y="745.033" type="line"/>
      <point x="574.877" y="478.793" type="line"/>
    </contour>
    <contour>
      <point x="657.821" y="830.025" type="line"/>
      <point x="320.925" y="830.025" type="line"/>
      <point x="769.437" y="1302.09" type="line"/>
    </contour>
  </outline>
</glyph>
<glyph name="nine.dnom" format="2">
  <advance width="921"/>
  <outline>
    <contour>
      <point x="582.019" y="982.016" type="curve" smooth="yes"/>
      <point x="383.363" y="982.016"/>
      <point x="180.611" y="792.576"/>
      <point x="180.611" y="590.848" type="curve" smooth="yes"/>
      <point x="180.611" y="435.2"/>
      <point x="296.323" y="354.304"/>
      <point x="442.755" y="354.304" type="curve" smooth="yes"/>
      <point x="477.571" y="354.304"/>
      <point x="510.339" y="357.376"/>
      <point x="542.083" y="364.544" type="curve"/>
      <point x="237.955" y="0" type="line"/>
      <point x="343.427" y="0" type="line"/>
      <point x="745.859" y="493.568" type="line" smooth="yes"/>
      <point x="801.139" y="561.367"/>
      <point x="838.019" y="646.144"/>
      <point x="838.019" y="733.184" type="curve" smooth="yes"/>
      <point x="838.019" y="879.616"/>
      <point x="726.403" y="982.016"/>
    </contour>
    <contour>
      <point x="568.707" y="891.904" type="curve" smooth="yes"/>
      <point x="668.035" y="891.904"/>
      <point x="739.715" y="816.128"/>
      <point x="739.715" y="717.824" type="curve" smooth="yes"/>
      <point x="739.715" y="569.344"/>
      <point x="600.451" y="437.248"/>
      <point x="452.995" y="437.248" type="curve" smooth="yes"/>
      <point x="352.643" y="437.248"/>
      <point x="278.915" y="499.712"/>
      <point x="278.915" y="603.136" type="curve" smooth="yes"/>
      <point x="278.915" y="749.568"/>
      <point x="422.275" y="891.904"/>
    </contour>
  </outline>
</glyph>
<glyph name="nine.numr" format="2">
  <advance width="921"/>
  <outline>
    <contour>
      <point x="701.262" y="1452.5" type="curve" smooth="yes"/>
      <point x="502.606" y="1452.5"/>
      <point x="299.854" y="1263.06"/>
      <point x="299.854" y="1061.33" type="curve" smooth="yes"/>
      <point x="299.854" y="905.681"/>
      <point x="415.566" y="824.785"/>
      <point x="561.998" y="824.785" type="curve" smooth="yes"/>
      <point x="596.814" y="824.785"/>
      <point x="629.582" y="827.857"/>
      <point x="661.326" y="835.025" type="curve"/>
      <point x="357.198" y="470.481" type="line"/>
      <point x="462.67" y="470.481" type="line"/>
      <point x="865.102" y="964.049" type="line" smooth="yes"/>
      <point x="920.381" y="1031.85"/>
      <point x="957.262" y="1116.63"/>
      <point x="957.262" y="1203.67" type="curve" smooth="yes"/>
      <point x="957.262" y="1350.1"/>
      <point x="845.646" y="1452.5"/>
    </contour>
    <contour>
      <point x="687.95" y="1362.39" type="curve" smooth="yes"/>
      <point x="787.278" y="1362.39"/>
      <point x="858.958" y="1286.61"/>
      <point x="858.958" y="1188.31" type="curve" smooth="yes"/>
      <point x="858.958" y="1039.83"/>
      <point x="719.694" y="907.729"/>
      <point x="572.238" y="907.729" type="curve" smooth="yes"/>
      <point x="471.886" y="907.729"/>
      <point x="398.158" y="970.193"/>
      <point x="398.158" y="1073.62" type="curve" smooth="yes"/>
      <point x="398.158" y="1220.05"/>
      <point x="541.518" y="1362.39"/>
    </contour>
  </outline>
</glyph>
<glyph name="seven.dnom" format="2">
  <advance width="870"/>
  <outline>
    <contour>
      <point x="232.418" y="0" type="line"/>
      <point x="860.13" y="918.528" type="line"/>
      <point x="870.37" y="968.704" type="line"/>
      <point x="237.538" y="968.704" type="line"/>
      <point x="219.106" y="880.64" type="line"/>
      <point x="743.394" y="880.64" type="line"/>
      <point x="125.922" y="0" type="line"/>
    </contour>
  </outline>
</glyph>
<glyph name="seven.numr" format="2">
  <advance width="870"/>
  <outline>
    <contour>
      <point x="323.928" y="478.793" type="line"/>
      <point x="951.64" y="1397.32" type="line"/>
      <point x="961.88" y="1447.5" type="line"/>
      <point x="329.048" y="1447.5" type="line"/>
      <point x="310.616" y="1359.43" type="line"/>
      <point x="834.904" y="1359.43" type="line"/>
      <point x="217.432" y="478.793" type="line"/>
    </contour>
  </outline>
</glyph>
<glyph name="six.dnom" format="2">
  <advance width="921"/>
  <outline>
    <contour>
      <point x="357.981" y="0" type="curve" smooth="yes"/>
      <point x="556.637" y="0"/>
      <point x="759.389" y="189.44"/>
      <point x="759.389" y="391.168" type="curve" smooth="yes"/>
      <point x="759.389" y="546.816"/>
      <point x="643.677" y="627.712"/>
      <point x="497.245" y="627.712" type="curve" smooth="yes"/>
      <point x="462.429" y="627.712"/>
      <point x="429.661" y="624.64"/>
      <point x="397.917" y="617.472" type="curve"/>
      <point x="702.045" y="982.016" type="line"/>
      <point x="596.573" y="982.016" type="line"/>
      <point x="194.141" y="488.448" type="line" smooth="yes"/>
      <point x="138.861" y="420.649"/>
      <point x="101.981" y="335.872"/>
      <point x="101.981" y="248.832" type="curve" smooth="yes"/>
      <point x="101.981" y="102.4"/>
      <point x="213.597" y="0"/>
    </contour>
    <contour>
      <point x="371.293" y="90.112" type="curve" smooth="yes"/>
      <point x="271.965" y="90.112"/>
      <point x="200.285" y="165.888"/>
      <point x="200.285" y="264.192" type="curve" smooth="yes"/>
      <point x="200.285" y="412.672"/>
      <point x="339.549" y="544.768"/>
      <point x="487.005" y="544.768" type="curve" smooth="yes"/>
      <point x="587.357" y="544.768"/>
      <point x="661.085" y="482.304"/>
      <point x="661.085" y="378.88" type="curve" smooth="yes"/>
      <point x="661.085" y="232.448"/>
      <point x="517.725" y="90.112"/>
    </contour>
  </outline>
</glyph>
<glyph name="six.numr" format="2">
  <advance width="921"/>
  <outline>
    <contour>
      <point x="475.738" y="465.481" type="curve" smooth="yes"/>
      <point x="674.394" y="465.481"/>
      <point x="877.146" y="654.921"/>
      <point x="877.146" y="856.649" type="curve" smooth="yes"/>
      <point x="877.146" y="1012.3"/>
      <point x="761.434" y="1093.19"/>
      <point x="615.002" y="1093.19" type="curve" smooth="yes"/>
      <point x="580.186" y="1093.19"/>
      <point x="547.418" y="1090.12"/>
      <point x="515.674" y="1082.95" type="curve"/>
      <point x="819.802" y="1447.5" type="line"/>
      <point x="714.33" y="1447.5" type="line"/>
      <point x="311.898" y="953.929" type="line" smooth="yes"/>
      <point x="256.619" y="886.131"/>
      <point x="219.738" y="801.353"/>
      <point x="219.738" y="714.313" type="curve" smooth="yes"/>
      <point x="219.738" y="567.881"/>
      <point x="331.354" y="465.481"/>
    </contour>
    <contour>
      <point x="489.05" y="555.593" type="curve" smooth="yes"/>
      <point x="389.722" y="555.593"/>
      <point x="318.042" y="631.369"/>
      <point x="318.042" y="729.673" type="curve" smooth="yes"/>
      <point x="318.042" y="878.153"/>
      <point x="457.306" y="1010.25"/>
      <point x="604.762" y="1010.25" type="curve" smooth="yes"/>
      <point x="705.114" y="1010.25"/>
      <point x="778.842" y="947.785"/>
      <point x="778.842" y="844.361" type="curve" smooth="yes"/>
      <point x="778.842" y="697.929"/>
      <point x="635.482" y="555.593"/>
    </contour>
  </outline>
</glyph>
<glyph name="three.numr" format="2">
  <advance width="921"/>
  <outline>
    <contour>
      <point x="467.394" y="448.342" type="curve" smooth="yes"/>
      <point x="672.194" y="448.342"/>
      <point x="862.658" y="587.606"/>
      <point x="862.658" y="804.694" type="curve" smooth="yes"/>
      <point x="862.658" y="894.806"/>
      <point x="820.674" y="955.222"/>
      <point x="735.682" y="983.894" type="curve"/>
      <point x="735.682" y="987.99" type="line"/>
      <point x="843.202" y="1038.17"/>
      <point x="921.026" y="1138.52"/>
      <point x="921.026" y="1261.4" type="curve" smooth="yes"/>
      <point x="921.026" y="1388.37"/>
      <point x="809.41" y="1451.86"/>
      <point x="694.722" y="1451.86" type="curve" smooth="yes"/>
      <point x="536.002" y="1451.86"/>
      <point x="405.954" y="1359.7"/>
      <point x="364.994" y="1204.05" type="curve"/>
      <point x="445.89" y="1187.67" type="line"/>
      <point x="472.514" y="1293.14"/>
      <point x="573.89" y="1361.75"/>
      <point x="680.386" y="1361.75" type="curve" smooth="yes"/>
      <point x="754.114" y="1361.75"/>
      <point x="824.77" y="1318.74"/>
      <point x="824.77" y="1237.85" type="curve" smooth="yes"/>
      <point x="824.77" y="1093.45"/>
      <point x="707.311" y="1025.21"/>
      <point x="579.96" y="1025.75" type="curve" smooth="yes"/>
      <point x="550.338" y="1025.88" type="line"/>
      <point x="530.882" y="933.718" type="line"/>
      <point x="602.562" y="933.718" type="line" smooth="yes"/>
      <point x="688.578" y="933.718"/>
      <point x="771.522" y="887.638"/>
      <point x="771.522" y="793.43" type="curve" smooth="yes"/>
      <point x="771.522" y="640.854"/>
      <point x="624.066" y="535.382"/>
      <point x="479.682" y="535.382" type="curve" smooth="yes"/>
      <point x="386.498" y="535.382"/>
      <point x="291.266" y="584.534"/>
      <point x="291.266" y="687.958" type="curve" smooth="yes"/>
      <point x="291.266" y="705.366"/>
      <point x="293.314" y="722.774"/>
      <point x="297.41" y="739.158" type="curve"/>
      <point x="204.226" y="735.062" type="line"/>
      <point x="199.106" y="710.486"/>
      <point x="195.01" y="685.91"/>
      <point x="195.01" y="661.334" type="curve" smooth="yes"/>
      <point x="195.01" y="506.71"/>
      <point x="332.226" y="448.342"/>
    </contour>
  </outline>
</glyph>
<glyph name="two.numr" format="2">
  <advance width="921"/>
  <outline>
    <contour>
      <point x="785.031" y="471.459" type="line"/>
      <point x="803.463" y="555.427" type="line"/>
      <point x="269.426" y="555.414" type="line"/>
      <point x="268.444" y="559.391" type="line"/>
      <point x="320.111" y="584.341"/>
      <point x="356.999" y="603.555"/>
      <point x="398.983" y="631.203" type="curve" smooth="yes"/>
      <point x="596.615" y="763.299"/>
      <point x="916.103" y="988.579"/>
      <point x="916.103" y="1252.77" type="curve" smooth="yes"/>
      <point x="916.103" y="1392.03"/>
      <point x="812.679" y="1453.47"/>
      <point x="684.679" y="1453.47" type="curve" smooth="yes"/>
      <point x="497.287" y="1453.47"/>
      <point x="369.287" y="1313.19"/>
      <point x="328.327" y="1140.13" type="curve"/>
      <point x="415.367" y="1125.79" type="line"/>
      <point x="448.135" y="1251.75"/>
      <point x="534.151" y="1363.36"/>
      <point x="673.415" y="1363.36" type="curve" smooth="yes"/>
      <point x="759.431" y="1363.36"/>
      <point x="810.631" y="1320.35"/>
      <point x="810.631" y="1233.31" type="curve" smooth="yes"/>
      <point x="810.631" y="1103.32"/>
      <point x="751.347" y="1018.63"/>
      <point x="523.911" y="823.715" type="curve" smooth="yes"/>
      <point x="407.435" y="723.893"/>
      <point x="282.247" y="641.443"/>
      <point x="148.103" y="567.715" type="curve"/>
      <point x="128.647" y="471.459" type="line"/>
    </contour>
  </outline>
</glyph>
<glyph name="zero.dnom" format="2">
  <advance width="921"/>
  <outline>
    <contour>
      <point x="375.618" y="-6.16095" type="curve" smooth="yes"/>
      <point x="679.746" y="-6.16095"/>
      <point x="856.898" y="404.463"/>
      <point x="856.898" y="662.511" type="curve" smooth="yes"/>
      <point x="856.898" y="832.495"/>
      <point x="786.242" y="999.407"/>
      <point x="591.682" y="999.407" type="curve" smooth="yes"/>
      <point x="281.41" y="999.407"/>
      <point x="107.33" y="588.783"/>
      <point x="107.33" y="325.615" type="curve" smooth="yes"/>
      <point x="107.33" y="149.487"/>
      <point x="175.938" y="-6.16095"/>
    </contour>
    <contour>
      <point x="383.81" y="85.9991" type="curve" smooth="yes"/>
      <point x="241.474" y="85.9991"/>
      <point x="204.61" y="208.879"/>
      <point x="204.61" y="328.687" type="curve" smooth="yes"/>
      <point x="204.61" y="526.319"/>
      <point x="334.658" y="903.151"/>
      <point x="577.346" y="903.151" type="curve" smooth="yes"/>
      <point x="713.538" y="903.151"/>
      <point x="750.402" y="778.223"/>
      <point x="750.402" y="664.559" type="curve" smooth="yes"/>
      <point x="750.402" y="471.023"/>
      <point x="620.354" y="85.9991"/>
    </contour>
  </outline>
</glyph>
<glyph name="zero.numr" format="2">
  <advance width="921"/>
  <outline>
    <contour>
      <point x="479.064" y="446.321" type="curve" smooth="yes"/>
      <point x="783.192" y="446.321"/>
      <point x="960.344" y="856.945"/>
      <point x="960.344" y="1114.99" type="curve" smooth="yes"/>
      <point x="960.344" y="1284.98"/>
      <point x="889.688" y="1451.89"/>
      <point x="695.128" y="1451.89" type="curve" smooth="yes"/>
      <point x="384.856" y="1451.89"/>
      <point x="210.776" y="1041.27"/>
      <point x="210.776" y="778.097" type="curve" smooth="yes"/>
      <point x="210.776" y="601.969"/>
      <point x="279.384" y="446.321"/>
    </contour>
    <contour>
      <point x="487.256" y="538.481" type="curve" smooth="yes"/>
      <point x="344.92" y="538.481"/>
      <point x="308.056" y="661.361"/>
      <point x="308.056" y="781.169" type="curve" smooth="yes"/>
      <point x="308.056" y="978.801"/>
      <point x="438.104" y="1355.63"/>
      <point x="680.792" y="1355.63" type="curve" smooth="yes"/>
      <point x="816.984" y="1355.63"/>
      <point x="853.848" y="1230.71"/>
      <point x="853.848" y="1117.04" type="curve" smooth="yes"/>
      <point x="853.848" y="923.505"/>
      <point x="723.8" y="538.481"/>
    </contour>
  </outline>
</glyph>
